<mxfile host="Electron" agent="Mozilla/5.0 (Windows NT 10.0; Win64; x64) AppleWebKit/537.36 (KHTML, like Gecko) draw.io/24.7.17 Chrome/128.0.6613.36 Electron/32.0.1 Safari/537.36" version="24.7.17">
  <diagram name="Страница — 1" id="jVbT9zwdfhiiSsaEJA4f">
    <mxGraphModel dx="863" dy="505" grid="1" gridSize="10" guides="1" tooltips="1" connect="1" arrows="1" fold="1" page="1" pageScale="1" pageWidth="827" pageHeight="1169" math="0" shadow="0">
      <root>
        <mxCell id="0" />
        <mxCell id="1" parent="0" />
        <mxCell id="HyKCNVC7SSUXo4rivvz0-1" value="" style="endArrow=none;html=1;rounded=0;entryX=0;entryY=0.5;entryDx=0;entryDy=0;" edge="1" parent="1" target="HyKCNVC7SSUXo4rivvz0-4">
          <mxGeometry width="50" height="50" relative="1" as="geometry">
            <mxPoint x="120" y="200" as="sourcePoint" />
            <mxPoint x="150" y="200" as="targetPoint" />
          </mxGeometry>
        </mxCell>
        <mxCell id="HyKCNVC7SSUXo4rivvz0-3" value="&lt;font style=&quot;font-size: 14px;&quot; face=&quot;Times New Roman&quot;&gt;Ветка&amp;nbsp;&lt;br&gt;&lt;i&gt;master&lt;/i&gt;&lt;/font&gt;" style="text;html=1;align=center;verticalAlign=middle;resizable=0;points=[];autosize=1;strokeColor=none;fillColor=none;" vertex="1" parent="1">
          <mxGeometry x="50" y="170" width="60" height="50" as="geometry" />
        </mxCell>
        <mxCell id="HyKCNVC7SSUXo4rivvz0-4" value="" style="ellipse;whiteSpace=wrap;html=1;aspect=fixed;fillColor=#3333FF;" vertex="1" parent="1">
          <mxGeometry x="155" y="195" width="10" height="10" as="geometry" />
        </mxCell>
        <mxCell id="HyKCNVC7SSUXo4rivvz0-6" value="" style="endArrow=none;html=1;rounded=0;entryX=0;entryY=0.5;entryDx=0;entryDy=0;" edge="1" parent="1" target="HyKCNVC7SSUXo4rivvz0-7">
          <mxGeometry width="50" height="50" relative="1" as="geometry">
            <mxPoint x="165" y="200" as="sourcePoint" />
            <mxPoint x="230" y="200" as="targetPoint" />
          </mxGeometry>
        </mxCell>
        <mxCell id="HyKCNVC7SSUXo4rivvz0-7" value="" style="ellipse;whiteSpace=wrap;html=1;aspect=fixed;fillColor=#3333FF;" vertex="1" parent="1">
          <mxGeometry x="235" y="195" width="10" height="10" as="geometry" />
        </mxCell>
        <mxCell id="HyKCNVC7SSUXo4rivvz0-17" value="&lt;font style=&quot;font-size: 14px;&quot; face=&quot;Times New Roman&quot;&gt;ab51699&lt;/font&gt;" style="text;html=1;align=center;verticalAlign=middle;resizable=0;points=[];autosize=1;strokeColor=none;fillColor=none;rotation=0;" vertex="1" parent="1">
          <mxGeometry x="125" y="165" width="70" height="30" as="geometry" />
        </mxCell>
        <mxCell id="HyKCNVC7SSUXo4rivvz0-18" value="" style="endArrow=none;html=1;rounded=0;entryX=0;entryY=0.5;entryDx=0;entryDy=0;" edge="1" parent="1" target="HyKCNVC7SSUXo4rivvz0-19">
          <mxGeometry width="50" height="50" relative="1" as="geometry">
            <mxPoint x="245" y="200" as="sourcePoint" />
            <mxPoint x="310" y="200" as="targetPoint" />
          </mxGeometry>
        </mxCell>
        <mxCell id="HyKCNVC7SSUXo4rivvz0-19" value="" style="ellipse;whiteSpace=wrap;html=1;aspect=fixed;fillColor=#3333FF;" vertex="1" parent="1">
          <mxGeometry x="315" y="195" width="10" height="10" as="geometry" />
        </mxCell>
        <mxCell id="HyKCNVC7SSUXo4rivvz0-20" value="" style="endArrow=none;html=1;rounded=0;entryX=0;entryY=0.5;entryDx=0;entryDy=0;" edge="1" parent="1" target="HyKCNVC7SSUXo4rivvz0-21">
          <mxGeometry width="50" height="50" relative="1" as="geometry">
            <mxPoint x="325" y="200" as="sourcePoint" />
            <mxPoint x="390" y="200" as="targetPoint" />
          </mxGeometry>
        </mxCell>
        <mxCell id="HyKCNVC7SSUXo4rivvz0-21" value="" style="ellipse;whiteSpace=wrap;html=1;aspect=fixed;fillColor=#3333FF;" vertex="1" parent="1">
          <mxGeometry x="395" y="195" width="10" height="10" as="geometry" />
        </mxCell>
        <mxCell id="HyKCNVC7SSUXo4rivvz0-23" value="&lt;font style=&quot;font-size: 14px;&quot; face=&quot;Times New Roman&quot;&gt;9329f46&lt;/font&gt;" style="text;html=1;align=center;verticalAlign=middle;resizable=0;points=[];autosize=1;strokeColor=none;fillColor=none;" vertex="1" parent="1">
          <mxGeometry x="205" y="165" width="70" height="30" as="geometry" />
        </mxCell>
        <mxCell id="HyKCNVC7SSUXo4rivvz0-24" value="&lt;font face=&quot;Times New Roman&quot;&gt;&lt;span style=&quot;font-size: 14px;&quot;&gt;862c4d3&lt;/span&gt;&lt;/font&gt;" style="text;html=1;align=center;verticalAlign=middle;resizable=0;points=[];autosize=1;strokeColor=none;fillColor=none;" vertex="1" parent="1">
          <mxGeometry x="285" y="165" width="70" height="30" as="geometry" />
        </mxCell>
        <mxCell id="HyKCNVC7SSUXo4rivvz0-25" value="&lt;font face=&quot;Times New Roman&quot;&gt;&lt;span style=&quot;font-size: 14px;&quot;&gt;5ba1678&lt;/span&gt;&lt;/font&gt;" style="text;html=1;align=center;verticalAlign=middle;resizable=0;points=[];autosize=1;strokeColor=none;fillColor=none;" vertex="1" parent="1">
          <mxGeometry x="365" y="165" width="70" height="30" as="geometry" />
        </mxCell>
        <mxCell id="HyKCNVC7SSUXo4rivvz0-27" value="" style="endArrow=classic;html=1;rounded=0;exitX=1;exitY=0.5;exitDx=0;exitDy=0;" edge="1" parent="1" source="HyKCNVC7SSUXo4rivvz0-21">
          <mxGeometry width="50" height="50" relative="1" as="geometry">
            <mxPoint x="380" y="280" as="sourcePoint" />
            <mxPoint x="440" y="200" as="targetPoint" />
          </mxGeometry>
        </mxCell>
        <mxCell id="HyKCNVC7SSUXo4rivvz0-28" value="" style="endArrow=none;html=1;rounded=0;entryX=0;entryY=0.5;entryDx=0;entryDy=0;" edge="1" parent="1" target="HyKCNVC7SSUXo4rivvz0-30">
          <mxGeometry width="50" height="50" relative="1" as="geometry">
            <mxPoint x="120" y="295" as="sourcePoint" />
            <mxPoint x="150" y="295" as="targetPoint" />
          </mxGeometry>
        </mxCell>
        <mxCell id="HyKCNVC7SSUXo4rivvz0-29" value="&lt;font style=&quot;font-size: 14px;&quot; face=&quot;Times New Roman&quot;&gt;Ветка&amp;nbsp;&lt;br&gt;&lt;i&gt;master&lt;/i&gt;&lt;/font&gt;" style="text;html=1;align=center;verticalAlign=middle;resizable=0;points=[];autosize=1;strokeColor=none;fillColor=none;" vertex="1" parent="1">
          <mxGeometry x="50" y="265" width="60" height="50" as="geometry" />
        </mxCell>
        <mxCell id="HyKCNVC7SSUXo4rivvz0-30" value="" style="ellipse;whiteSpace=wrap;html=1;aspect=fixed;fillColor=#3333FF;" vertex="1" parent="1">
          <mxGeometry x="155" y="290" width="10" height="10" as="geometry" />
        </mxCell>
        <mxCell id="HyKCNVC7SSUXo4rivvz0-31" value="" style="endArrow=none;html=1;rounded=0;entryX=0;entryY=0.5;entryDx=0;entryDy=0;" edge="1" parent="1" target="HyKCNVC7SSUXo4rivvz0-32">
          <mxGeometry width="50" height="50" relative="1" as="geometry">
            <mxPoint x="165" y="295" as="sourcePoint" />
            <mxPoint x="230" y="295" as="targetPoint" />
          </mxGeometry>
        </mxCell>
        <mxCell id="HyKCNVC7SSUXo4rivvz0-32" value="" style="ellipse;whiteSpace=wrap;html=1;aspect=fixed;fillColor=#3333FF;" vertex="1" parent="1">
          <mxGeometry x="235" y="290" width="10" height="10" as="geometry" />
        </mxCell>
        <mxCell id="HyKCNVC7SSUXo4rivvz0-33" value="&lt;font style=&quot;font-size: 14px;&quot; face=&quot;Times New Roman&quot;&gt;ab51699&lt;/font&gt;" style="text;html=1;align=center;verticalAlign=middle;resizable=0;points=[];autosize=1;strokeColor=none;fillColor=none;rotation=0;" vertex="1" parent="1">
          <mxGeometry x="125" y="260" width="70" height="30" as="geometry" />
        </mxCell>
        <mxCell id="HyKCNVC7SSUXo4rivvz0-34" value="" style="endArrow=none;html=1;rounded=0;entryX=0;entryY=0.5;entryDx=0;entryDy=0;" edge="1" parent="1" target="HyKCNVC7SSUXo4rivvz0-35">
          <mxGeometry width="50" height="50" relative="1" as="geometry">
            <mxPoint x="245" y="295" as="sourcePoint" />
            <mxPoint x="310" y="295" as="targetPoint" />
          </mxGeometry>
        </mxCell>
        <mxCell id="HyKCNVC7SSUXo4rivvz0-35" value="" style="ellipse;whiteSpace=wrap;html=1;aspect=fixed;fillColor=#3333FF;" vertex="1" parent="1">
          <mxGeometry x="315" y="290" width="10" height="10" as="geometry" />
        </mxCell>
        <mxCell id="HyKCNVC7SSUXo4rivvz0-36" value="" style="endArrow=none;html=1;rounded=0;entryX=0;entryY=0.5;entryDx=0;entryDy=0;" edge="1" parent="1" target="HyKCNVC7SSUXo4rivvz0-37">
          <mxGeometry width="50" height="50" relative="1" as="geometry">
            <mxPoint x="325" y="295" as="sourcePoint" />
            <mxPoint x="390" y="295" as="targetPoint" />
          </mxGeometry>
        </mxCell>
        <mxCell id="HyKCNVC7SSUXo4rivvz0-37" value="" style="ellipse;whiteSpace=wrap;html=1;aspect=fixed;fillColor=#3333FF;" vertex="1" parent="1">
          <mxGeometry x="395" y="290" width="10" height="10" as="geometry" />
        </mxCell>
        <mxCell id="HyKCNVC7SSUXo4rivvz0-38" value="&lt;font style=&quot;font-size: 14px;&quot; face=&quot;Times New Roman&quot;&gt;9329f46&lt;/font&gt;" style="text;html=1;align=center;verticalAlign=middle;resizable=0;points=[];autosize=1;strokeColor=none;fillColor=none;" vertex="1" parent="1">
          <mxGeometry x="205" y="260" width="70" height="30" as="geometry" />
        </mxCell>
        <mxCell id="HyKCNVC7SSUXo4rivvz0-39" value="&lt;font face=&quot;Times New Roman&quot;&gt;&lt;span style=&quot;font-size: 14px;&quot;&gt;862c4d3&lt;/span&gt;&lt;/font&gt;" style="text;html=1;align=center;verticalAlign=middle;resizable=0;points=[];autosize=1;strokeColor=none;fillColor=none;" vertex="1" parent="1">
          <mxGeometry x="285" y="260" width="70" height="30" as="geometry" />
        </mxCell>
        <mxCell id="HyKCNVC7SSUXo4rivvz0-40" value="&lt;font face=&quot;Times New Roman&quot;&gt;&lt;span style=&quot;font-size: 14px;&quot;&gt;5ba1678&lt;/span&gt;&lt;/font&gt;" style="text;html=1;align=center;verticalAlign=middle;resizable=0;points=[];autosize=1;strokeColor=none;fillColor=none;" vertex="1" parent="1">
          <mxGeometry x="365" y="260" width="70" height="30" as="geometry" />
        </mxCell>
        <mxCell id="HyKCNVC7SSUXo4rivvz0-41" value="" style="endArrow=classic;html=1;rounded=0;exitX=1;exitY=0.5;exitDx=0;exitDy=0;" edge="1" parent="1" source="HyKCNVC7SSUXo4rivvz0-37">
          <mxGeometry width="50" height="50" relative="1" as="geometry">
            <mxPoint x="380" y="375" as="sourcePoint" />
            <mxPoint x="440" y="295" as="targetPoint" />
          </mxGeometry>
        </mxCell>
        <mxCell id="HyKCNVC7SSUXo4rivvz0-42" value="" style="endArrow=none;html=1;rounded=0;entryX=0.5;entryY=1;entryDx=0;entryDy=0;" edge="1" parent="1" target="HyKCNVC7SSUXo4rivvz0-32">
          <mxGeometry width="50" height="50" relative="1" as="geometry">
            <mxPoint x="260" y="355" as="sourcePoint" />
            <mxPoint x="240" y="305" as="targetPoint" />
          </mxGeometry>
        </mxCell>
        <mxCell id="HyKCNVC7SSUXo4rivvz0-43" value="" style="ellipse;whiteSpace=wrap;html=1;aspect=fixed;fillColor=#00CC00;" vertex="1" parent="1">
          <mxGeometry x="315" y="350" width="10" height="10" as="geometry" />
        </mxCell>
        <mxCell id="HyKCNVC7SSUXo4rivvz0-44" value="" style="endArrow=none;html=1;rounded=0;entryX=0;entryY=0.5;entryDx=0;entryDy=0;" edge="1" parent="1" target="HyKCNVC7SSUXo4rivvz0-43">
          <mxGeometry width="50" height="50" relative="1" as="geometry">
            <mxPoint x="260" y="355" as="sourcePoint" />
            <mxPoint x="310" y="310" as="targetPoint" />
          </mxGeometry>
        </mxCell>
        <mxCell id="HyKCNVC7SSUXo4rivvz0-45" value="" style="ellipse;whiteSpace=wrap;html=1;aspect=fixed;fillColor=#00CC00;" vertex="1" parent="1">
          <mxGeometry x="395" y="350" width="10" height="10" as="geometry" />
        </mxCell>
        <mxCell id="HyKCNVC7SSUXo4rivvz0-46" value="" style="endArrow=none;html=1;rounded=0;entryX=0;entryY=0.5;entryDx=0;entryDy=0;exitX=1;exitY=0.5;exitDx=0;exitDy=0;" edge="1" parent="1" source="HyKCNVC7SSUXo4rivvz0-43" target="HyKCNVC7SSUXo4rivvz0-45">
          <mxGeometry width="50" height="50" relative="1" as="geometry">
            <mxPoint x="340" y="405" as="sourcePoint" />
            <mxPoint x="390" y="355" as="targetPoint" />
          </mxGeometry>
        </mxCell>
        <mxCell id="HyKCNVC7SSUXo4rivvz0-47" value="" style="endArrow=classic;html=1;rounded=0;exitX=1;exitY=0.5;exitDx=0;exitDy=0;" edge="1" parent="1" source="HyKCNVC7SSUXo4rivvz0-45">
          <mxGeometry width="50" height="50" relative="1" as="geometry">
            <mxPoint x="390" y="405" as="sourcePoint" />
            <mxPoint x="440" y="355" as="targetPoint" />
          </mxGeometry>
        </mxCell>
        <mxCell id="HyKCNVC7SSUXo4rivvz0-48" value="&lt;font style=&quot;font-size: 14px;&quot; face=&quot;Times New Roman&quot;&gt;524b537&lt;/font&gt;" style="text;html=1;align=center;verticalAlign=middle;resizable=0;points=[];autosize=1;strokeColor=none;fillColor=none;" vertex="1" parent="1">
          <mxGeometry x="285" y="320" width="70" height="30" as="geometry" />
        </mxCell>
        <mxCell id="HyKCNVC7SSUXo4rivvz0-49" value="&lt;font face=&quot;Times New Roman&quot;&gt;&lt;span style=&quot;font-size: 14px;&quot;&gt;235c0f0&lt;/span&gt;&lt;/font&gt;" style="text;html=1;align=center;verticalAlign=middle;resizable=0;points=[];autosize=1;strokeColor=none;fillColor=none;" vertex="1" parent="1">
          <mxGeometry x="365" y="320" width="70" height="30" as="geometry" />
        </mxCell>
        <mxCell id="HyKCNVC7SSUXo4rivvz0-50" value="&lt;font style=&quot;font-size: 14px;&quot; face=&quot;Times New Roman&quot;&gt;Ветка&amp;nbsp;&lt;br&gt;&lt;i&gt;branch1&lt;/i&gt;&lt;/font&gt;" style="text;html=1;align=center;verticalAlign=middle;resizable=0;points=[];autosize=1;strokeColor=none;fillColor=none;" vertex="1" parent="1">
          <mxGeometry x="190" y="330" width="70" height="50" as="geometry" />
        </mxCell>
        <mxCell id="HyKCNVC7SSUXo4rivvz0-51" value="" style="endArrow=none;html=1;rounded=0;entryX=0;entryY=0.5;entryDx=0;entryDy=0;" edge="1" parent="1" target="HyKCNVC7SSUXo4rivvz0-53">
          <mxGeometry width="50" height="50" relative="1" as="geometry">
            <mxPoint x="120" y="479" as="sourcePoint" />
            <mxPoint x="150" y="479" as="targetPoint" />
          </mxGeometry>
        </mxCell>
        <mxCell id="HyKCNVC7SSUXo4rivvz0-52" value="&lt;font style=&quot;font-size: 14px;&quot; face=&quot;Times New Roman&quot;&gt;Ветка&amp;nbsp;&lt;br&gt;&lt;i&gt;master&lt;/i&gt;&lt;/font&gt;" style="text;html=1;align=center;verticalAlign=middle;resizable=0;points=[];autosize=1;strokeColor=none;fillColor=none;" vertex="1" parent="1">
          <mxGeometry x="50" y="449" width="60" height="50" as="geometry" />
        </mxCell>
        <mxCell id="HyKCNVC7SSUXo4rivvz0-53" value="" style="ellipse;whiteSpace=wrap;html=1;aspect=fixed;fillColor=#3333FF;" vertex="1" parent="1">
          <mxGeometry x="155" y="474" width="10" height="10" as="geometry" />
        </mxCell>
        <mxCell id="HyKCNVC7SSUXo4rivvz0-54" value="" style="endArrow=none;html=1;rounded=0;entryX=0;entryY=0.5;entryDx=0;entryDy=0;" edge="1" parent="1" target="HyKCNVC7SSUXo4rivvz0-55">
          <mxGeometry width="50" height="50" relative="1" as="geometry">
            <mxPoint x="165" y="479" as="sourcePoint" />
            <mxPoint x="230" y="479" as="targetPoint" />
          </mxGeometry>
        </mxCell>
        <mxCell id="HyKCNVC7SSUXo4rivvz0-55" value="" style="ellipse;whiteSpace=wrap;html=1;aspect=fixed;fillColor=#3333FF;" vertex="1" parent="1">
          <mxGeometry x="235" y="474" width="10" height="10" as="geometry" />
        </mxCell>
        <mxCell id="HyKCNVC7SSUXo4rivvz0-56" value="&lt;font style=&quot;font-size: 14px;&quot; face=&quot;Times New Roman&quot;&gt;ab51699&lt;/font&gt;" style="text;html=1;align=center;verticalAlign=middle;resizable=0;points=[];autosize=1;strokeColor=none;fillColor=none;rotation=0;" vertex="1" parent="1">
          <mxGeometry x="125" y="444" width="70" height="30" as="geometry" />
        </mxCell>
        <mxCell id="HyKCNVC7SSUXo4rivvz0-57" value="" style="endArrow=none;html=1;rounded=0;entryX=0;entryY=0.5;entryDx=0;entryDy=0;" edge="1" parent="1" target="HyKCNVC7SSUXo4rivvz0-58">
          <mxGeometry width="50" height="50" relative="1" as="geometry">
            <mxPoint x="245" y="479" as="sourcePoint" />
            <mxPoint x="310" y="479" as="targetPoint" />
          </mxGeometry>
        </mxCell>
        <mxCell id="HyKCNVC7SSUXo4rivvz0-58" value="" style="ellipse;whiteSpace=wrap;html=1;aspect=fixed;fillColor=#3333FF;" vertex="1" parent="1">
          <mxGeometry x="315" y="474" width="10" height="10" as="geometry" />
        </mxCell>
        <mxCell id="HyKCNVC7SSUXo4rivvz0-59" value="" style="endArrow=none;html=1;rounded=0;entryX=0;entryY=0.5;entryDx=0;entryDy=0;" edge="1" parent="1" target="HyKCNVC7SSUXo4rivvz0-60">
          <mxGeometry width="50" height="50" relative="1" as="geometry">
            <mxPoint x="325" y="479" as="sourcePoint" />
            <mxPoint x="390" y="479" as="targetPoint" />
          </mxGeometry>
        </mxCell>
        <mxCell id="HyKCNVC7SSUXo4rivvz0-60" value="" style="ellipse;whiteSpace=wrap;html=1;aspect=fixed;fillColor=#3333FF;" vertex="1" parent="1">
          <mxGeometry x="395" y="474" width="10" height="10" as="geometry" />
        </mxCell>
        <mxCell id="HyKCNVC7SSUXo4rivvz0-61" value="&lt;font style=&quot;font-size: 14px;&quot; face=&quot;Times New Roman&quot;&gt;9329f46&lt;/font&gt;" style="text;html=1;align=center;verticalAlign=middle;resizable=0;points=[];autosize=1;strokeColor=none;fillColor=none;" vertex="1" parent="1">
          <mxGeometry x="205" y="444" width="70" height="30" as="geometry" />
        </mxCell>
        <mxCell id="HyKCNVC7SSUXo4rivvz0-62" value="&lt;font face=&quot;Times New Roman&quot;&gt;&lt;span style=&quot;font-size: 14px;&quot;&gt;862c4d3&lt;/span&gt;&lt;/font&gt;" style="text;html=1;align=center;verticalAlign=middle;resizable=0;points=[];autosize=1;strokeColor=none;fillColor=none;" vertex="1" parent="1">
          <mxGeometry x="285" y="444" width="70" height="30" as="geometry" />
        </mxCell>
        <mxCell id="HyKCNVC7SSUXo4rivvz0-63" value="&lt;font face=&quot;Times New Roman&quot;&gt;&lt;span style=&quot;font-size: 14px;&quot;&gt;5ba1678&lt;/span&gt;&lt;/font&gt;" style="text;html=1;align=center;verticalAlign=middle;resizable=0;points=[];autosize=1;strokeColor=none;fillColor=none;" vertex="1" parent="1">
          <mxGeometry x="365" y="444" width="70" height="30" as="geometry" />
        </mxCell>
        <mxCell id="HyKCNVC7SSUXo4rivvz0-64" value="" style="endArrow=classic;html=1;rounded=0;exitX=1;exitY=0.5;exitDx=0;exitDy=0;" edge="1" parent="1">
          <mxGeometry width="50" height="50" relative="1" as="geometry">
            <mxPoint x="485" y="478.71" as="sourcePoint" />
            <mxPoint x="520" y="478.71" as="targetPoint" />
          </mxGeometry>
        </mxCell>
        <mxCell id="HyKCNVC7SSUXo4rivvz0-65" value="" style="endArrow=none;html=1;rounded=0;entryX=0.5;entryY=1;entryDx=0;entryDy=0;" edge="1" parent="1" target="HyKCNVC7SSUXo4rivvz0-55">
          <mxGeometry width="50" height="50" relative="1" as="geometry">
            <mxPoint x="260" y="539" as="sourcePoint" />
            <mxPoint x="240" y="489" as="targetPoint" />
          </mxGeometry>
        </mxCell>
        <mxCell id="HyKCNVC7SSUXo4rivvz0-66" value="" style="ellipse;whiteSpace=wrap;html=1;aspect=fixed;fillColor=#00CC00;" vertex="1" parent="1">
          <mxGeometry x="315" y="534" width="10" height="10" as="geometry" />
        </mxCell>
        <mxCell id="HyKCNVC7SSUXo4rivvz0-67" value="" style="endArrow=none;html=1;rounded=0;entryX=0;entryY=0.5;entryDx=0;entryDy=0;" edge="1" parent="1" target="HyKCNVC7SSUXo4rivvz0-66">
          <mxGeometry width="50" height="50" relative="1" as="geometry">
            <mxPoint x="260" y="539" as="sourcePoint" />
            <mxPoint x="310" y="494" as="targetPoint" />
          </mxGeometry>
        </mxCell>
        <mxCell id="HyKCNVC7SSUXo4rivvz0-68" value="" style="ellipse;whiteSpace=wrap;html=1;aspect=fixed;fillColor=#00CC00;" vertex="1" parent="1">
          <mxGeometry x="395" y="534" width="10" height="10" as="geometry" />
        </mxCell>
        <mxCell id="HyKCNVC7SSUXo4rivvz0-69" value="" style="endArrow=none;html=1;rounded=0;entryX=0;entryY=0.5;entryDx=0;entryDy=0;exitX=1;exitY=0.5;exitDx=0;exitDy=0;" edge="1" parent="1" source="HyKCNVC7SSUXo4rivvz0-66" target="HyKCNVC7SSUXo4rivvz0-68">
          <mxGeometry width="50" height="50" relative="1" as="geometry">
            <mxPoint x="340" y="589" as="sourcePoint" />
            <mxPoint x="390" y="539" as="targetPoint" />
          </mxGeometry>
        </mxCell>
        <mxCell id="HyKCNVC7SSUXo4rivvz0-70" value="" style="endArrow=classic;html=1;rounded=0;exitX=1;exitY=0.5;exitDx=0;exitDy=0;entryX=0;entryY=1;entryDx=0;entryDy=0;" edge="1" parent="1" source="HyKCNVC7SSUXo4rivvz0-68" target="HyKCNVC7SSUXo4rivvz0-75">
          <mxGeometry width="50" height="50" relative="1" as="geometry">
            <mxPoint x="390" y="589" as="sourcePoint" />
            <mxPoint x="440" y="539" as="targetPoint" />
          </mxGeometry>
        </mxCell>
        <mxCell id="HyKCNVC7SSUXo4rivvz0-71" value="&lt;font style=&quot;font-size: 14px;&quot; face=&quot;Times New Roman&quot;&gt;524b537&lt;/font&gt;" style="text;html=1;align=center;verticalAlign=middle;resizable=0;points=[];autosize=1;strokeColor=none;fillColor=none;" vertex="1" parent="1">
          <mxGeometry x="285" y="504" width="70" height="30" as="geometry" />
        </mxCell>
        <mxCell id="HyKCNVC7SSUXo4rivvz0-72" value="&lt;font face=&quot;Times New Roman&quot;&gt;&lt;span style=&quot;font-size: 14px;&quot;&gt;235c0f0&lt;/span&gt;&lt;/font&gt;" style="text;html=1;align=center;verticalAlign=middle;resizable=0;points=[];autosize=1;strokeColor=none;fillColor=none;" vertex="1" parent="1">
          <mxGeometry x="365" y="504" width="70" height="30" as="geometry" />
        </mxCell>
        <mxCell id="HyKCNVC7SSUXo4rivvz0-73" value="&lt;font style=&quot;font-size: 14px;&quot; face=&quot;Times New Roman&quot;&gt;Ветка&amp;nbsp;&lt;br&gt;&lt;i&gt;branch1&lt;/i&gt;&lt;/font&gt;" style="text;html=1;align=center;verticalAlign=middle;resizable=0;points=[];autosize=1;strokeColor=none;fillColor=none;" vertex="1" parent="1">
          <mxGeometry x="190" y="514" width="70" height="50" as="geometry" />
        </mxCell>
        <mxCell id="HyKCNVC7SSUXo4rivvz0-74" value="" style="endArrow=none;html=1;rounded=0;entryX=0;entryY=0.5;entryDx=0;entryDy=0;" edge="1" parent="1" target="HyKCNVC7SSUXo4rivvz0-75">
          <mxGeometry width="50" height="50" relative="1" as="geometry">
            <mxPoint x="405" y="479" as="sourcePoint" />
            <mxPoint x="470" y="479" as="targetPoint" />
          </mxGeometry>
        </mxCell>
        <mxCell id="HyKCNVC7SSUXo4rivvz0-75" value="" style="ellipse;whiteSpace=wrap;html=1;aspect=fixed;fillColor=#3333FF;" vertex="1" parent="1">
          <mxGeometry x="475" y="474" width="10" height="10" as="geometry" />
        </mxCell>
        <mxCell id="HyKCNVC7SSUXo4rivvz0-76" value="&lt;font face=&quot;Times New Roman&quot;&gt;&lt;span style=&quot;font-size: 14px;&quot;&gt;aa290d8&lt;/span&gt;&lt;/font&gt;" style="text;html=1;align=center;verticalAlign=middle;resizable=0;points=[];autosize=1;strokeColor=none;fillColor=none;" vertex="1" parent="1">
          <mxGeometry x="445" y="444" width="70" height="30" as="geometry" />
        </mxCell>
      </root>
    </mxGraphModel>
  </diagram>
</mxfile>
